<svg xmlns="http://www.w3.org/2000/svg" viewBox="0 0 320 64" fill="none">
  <path fill="#0B3B8C" d="M40 6a6 6 0 1 1 12 0v8h6a6 6 0 0 1 0 12h-6v6c0 10.5-7.6 19.2-17.6 21v5H44a4 4 0 1 1 0 8H28a4 4 0 1 1 0-8h6.4v-5C24.6 51.2 17 42.5 17 32v-6h-1a6 6 0 1 1 0-12h24V6Z"/>
  <path fill="#FFFFFF" opacity="0.9" d="M30 26h24v6c0 8.8-7.2 16-16 16s-16-7.2-16-16v-6h8Z"/>
  <path fill="#0F172A" d="M84.2 44V20.1h9.6c6.5 0 10.8 3.6 10.8 9.3 0 5.7-4.3 9.3-10.8 9.3h-4.6V44h-5Zm5-9.6h4.2c3.6 0 5.9-1.7 5.9-5 0-3.3-2.3-5-5.9-5h-4.2v10Zm20.4 9.6V20.1h5v19.8h11.3V44h-16.3Zm21.1 0V20.1h5V44h-5Zm11.4 0V20.1h9.6c7.5 0 12.6 4.7 12.6 11.9 0 7.3-5.1 12-12.6 12h-9.6Zm5-4.2h4.2c4.7 0 8-3.1 8-7.7 0-4.6-3.3-7.7-8-7.7h-4.2v15.4Z"/>
  <path fill="#0B3B8C" d="M187.7 44V20.1h9.5c6.6 0 10.9 3.6 10.9 9.3 0 5.7-4.3 9.3-10.9 9.3h-4.5V44h-5Zm5-9.6h4.2c3.7 0 6-1.7 6-5 0-3.3-2.3-5-6-5h-4.2v10ZM224.2 44h-6.7l-8.5-23.9h5.4l6.4 19.1 6.4-19.1h5.4L224.2 44ZM238 44V20.1h5V44h-5ZM261 44l-11.1-15.2V44h-4.9V20.1h4.9l11.1 15.2V20.1h4.9V44H261Z"/>
</svg>

